<?xml version="1.0" encoding="utf-8"?>
<svg viewBox="0 0 500 500" xmlns="http://www.w3.org/2000/svg">
  <path d="M 310.207 267.458 C 295.927 267.458 283.124 273.738 274.357 283.625 L 251.891 267.839 C 254.276 261.322 255.645 254.324 255.645 247 C 255.645 239.802 254.323 232.922 252.017 226.501 L 274.432 210.883 C 283.199 220.72 295.968 226.965 310.207 226.965 C 336.565 226.965 358.013 205.681 358.013 179.516 C 358.013 153.35 336.565 132.066 310.207 132.066 C 283.849 132.066 262.402 153.35 262.402 179.516 C 262.402 184.199 263.114 188.715 264.394 192.992 L 241.963 208.618 C 232.594 197.081 219.103 189.025 203.731 186.566 L 203.731 159.734 C 225.386 155.22 241.702 136.123 241.702 113.305 C 241.702 87.14 220.255 65.856 193.897 65.856 C 167.538 65.856 146.091 87.14 146.091 113.305 C 146.091 135.818 161.984 154.679 183.206 159.515 L 183.206 186.696 C 154.244 191.742 132.148 216.829 132.148 247 C 132.148 277.318 154.463 302.497 183.634 307.371 L 183.634 336.072 C 162.195 340.749 146.091 359.726 146.091 382.392 C 146.091 408.557 167.538 429.841 193.897 429.841 C 220.255 429.841 241.702 408.557 241.702 382.392 C 241.702 359.726 225.598 340.749 204.159 336.072 L 204.159 307.37 C 218.924 304.902 232.281 297.19 241.745 285.674 L 264.36 301.562 C 263.105 305.8 262.402 310.272 262.402 314.908 C 262.402 341.073 283.849 362.357 310.207 362.357 C 336.565 362.357 358.013 341.073 358.013 314.908 C 358.013 288.742 336.565 267.458 310.207 267.458 Z M 310.207 156.51 C 322.989 156.51 333.385 166.833 333.385 179.516 C 333.385 192.199 322.989 202.521 310.207 202.521 C 297.426 202.521 287.03 192.199 287.03 179.516 C 287.03 166.833 297.426 156.51 310.207 156.51 Z M 170.718 113.305 C 170.718 100.622 181.115 90.3 193.897 90.3 C 206.678 90.3 217.074 100.622 217.074 113.305 C 217.074 125.988 206.678 136.31 193.897 136.31 C 181.115 136.31 170.718 125.988 170.718 113.305 Z M 217.074 382.392 C 217.074 395.074 206.678 405.396 193.897 405.396 C 181.115 405.396 170.718 395.074 170.718 382.392 C 170.718 369.709 181.115 359.387 193.897 359.387 C 206.678 359.387 217.074 369.709 217.074 382.392 Z M 193.895 279.084 C 176.068 279.084 161.566 264.693 161.566 247 C 161.566 229.306 176.068 214.912 193.895 214.912 C 211.721 214.912 226.223 229.306 226.223 247 C 226.223 264.693 211.721 279.084 193.895 279.084 Z M 310.207 337.913 C 297.426 337.913 287.03 327.59 287.03 314.908 C 287.03 302.225 297.426 291.903 310.207 291.903 C 322.989 291.903 333.385 302.225 333.385 314.908 C 333.385 327.59 322.989 337.913 310.207 337.913 Z" style="fill: rgb(35, 31, 32);"/>
</svg>